<svg width="1440" height="325" viewBox="0 0 1440 325" fill="none" xmlns="http://www.w3.org/2000/svg">
<path d="M0 26.5455L12 26.427L24 26.2961L36 26.1516L48 25.992L60 25.8157L72 25.6211L84 25.4061L96 25.1688L108 24.9068L120 24.6177L132 24.2985L144 23.9463L156 23.5577L168 23.129L180 22.6561L192 22.1347L204 21.5598L216 20.9261L228 20.2279L240 19.4588L252 18.6119L264 17.6795L276 16.6537L288 15.5254L300 14.285L312 12.9223L324 11.4259L336 9.7839L348 7.98341L360 6.01062L372 3.85101L384 1.48906L396 -1.0915L408 -3.90774L420 -6.97738L432 -10.3187L444 -13.9504L456 -17.8915L468 -22.1609L480 -26.7774L492 -31.7591L504 -37.1232L516 -42.8854L528 -49.0598L540 -55.6578L552 -62.6883L564 -70.1566L576 -78.0639L588 -86.4073L600 -95.1787L612 -104.365L624 -113.946L636 -123.898L648 -134.191L660 -144.787L672 -155.646L684 -166.722L696 -177.963L708 -189.317L720 -200.727L732 -212.138L744 -223.492L756 -234.733L768 -245.808L780 -256.667L792 -267.264L804 -277.556L816 -287.508L828 -297.09L840 -306.276L852 -315.047L864 -323.391L876 -331.298L888 -338.766L900 -345.797L912 -352.395L924 -358.569L936 -364.331L948 -369.695L960 -374.677L972 -379.294L984 -383.563L996 -387.504L1008 -391.136L1020 -394.477L1032 -397.547L1044 -400.363L1056 -402.944L1068 -405.306L1080 -407.465L1092 -409.438L1104 -411.238L1116 -412.88L1128 -414.377L1140 -415.74L1152 -416.98L1164 -418.108L1176 -419.134L1188 -420.066L1200 -420.913L1212 -421.682L1224 -422.381L1236 -423.014L1248 -423.589L1260 -424.111L1272 -424.583L1284 -425.012L1296 -425.401L1308 -425.753L1320 -426.072L1332 -426.361L1344 -426.623L1356 -426.861L1368 -427.076L1380 -427.27L1392 -427.447L1404 -427.606L1416 -427.751L1428 -427.882L1440 -428" stroke="#3B19CC" stroke-linecap="round"/>
<path d="M0 81.091L12 80.9725L24 80.8416L36 80.6971L48 80.5375L60 80.3612L72 80.1666L84 79.9516L96 79.7143L108 79.4523L120 79.1631L132 78.8439L144 78.4918L156 78.1032L168 77.6744L180 77.2016L192 76.6801L204 76.1052L216 75.4716L228 74.7734L240 74.0043L252 73.1573L264 72.225L276 71.1991L288 70.0708L300 68.8305L312 67.4677L324 65.9714L336 64.3294L348 62.5289L360 60.5561L372 58.3965L384 56.0345L396 53.454L408 50.6377L420 47.5681L432 44.2268L444 40.5951L456 36.654L468 32.3846L480 27.768L492 22.7863L504 17.4223L516 11.66L528 5.48571L540 -1.11233L552 -8.14282L564 -15.6111L576 -23.5185L588 -31.8618L600 -40.6332L612 -49.8191L624 -59.4006L636 -69.3529L648 -79.6453L660 -90.2418L672 -101.101L684 -112.176L696 -123.417L708 -134.771L720 -146.182L732 -157.592L744 -168.946L756 -180.187L768 -191.263L780 -202.122L792 -212.718L804 -223.011L816 -232.963L828 -242.544L840 -251.73L852 -260.502L864 -268.845L876 -276.752L888 -284.221L900 -291.251L912 -297.849L924 -304.024L936 -309.786L948 -315.15L960 -320.132L972 -324.748L984 -329.018L996 -332.959L1008 -336.59L1020 -339.932L1032 -343.001L1044 -345.818L1056 -348.398L1068 -350.76L1080 -352.92L1092 -354.892L1104 -356.693L1116 -358.335L1128 -359.831L1140 -361.194L1152 -362.434L1164 -363.563L1176 -364.589L1188 -365.521L1200 -366.368L1212 -367.137L1224 -367.835L1236 -368.469L1248 -369.044L1260 -369.565L1272 -370.038L1284 -370.467L1296 -370.855L1308 -371.208L1320 -371.527L1332 -371.816L1344 -372.078L1356 -372.315L1368 -372.53L1380 -372.725L1392 -372.901L1404 -373.061L1416 -373.205L1428 -373.336L1440 -373.455" stroke="#3B19CC" stroke-linecap="round"/>
<path d="M0 135.636L12 135.518L24 135.387L36 135.243L48 135.083L60 134.907L72 134.712L84 134.497L96 134.26L108 133.998L120 133.709L132 133.389L144 133.037L156 132.649L168 132.22L180 131.747L192 131.226L204 130.651L216 130.017L228 129.319L240 128.55L252 127.703L264 126.77L276 125.745L288 124.616L300 123.376L312 122.013L324 120.517L336 118.875L348 117.074L360 115.102L372 112.942L384 110.58L396 107.999L408 105.183L420 102.114L432 98.7722L444 95.1405L456 91.1994L468 86.93L480 82.3135L492 77.3318L504 71.9677L516 66.2055L528 60.0311L540 53.4331L552 46.4026L564 38.9344L576 31.027L588 22.6836L600 13.9122L612 4.72633L624 -4.85515L636 -14.8074L648 -25.0999L660 -35.6964L672 -46.5554L684 -57.6307L696 -68.8719L708 -80.2257L720 -91.6363L732 -103.047L744 -114.401L756 -125.642L768 -136.717L780 -147.576L792 -158.173L804 -168.465L816 -178.418L828 -187.999L840 -197.185L852 -205.956L864 -214.3L876 -222.207L888 -229.675L900 -236.706L912 -243.304L924 -249.478L936 -255.24L948 -260.604L960 -265.586L972 -270.203L984 -274.472L996 -278.413L1008 -282.045L1020 -285.386L1032 -288.456L1044 -291.272L1056 -293.853L1068 -296.215L1080 -298.374L1092 -300.347L1104 -302.148L1116 -303.79L1128 -305.286L1140 -306.649L1152 -307.889L1164 -309.017L1176 -310.043L1188 -310.975L1200 -311.822L1212 -312.592L1224 -313.29L1236 -313.923L1248 -314.498L1260 -315.02L1272 -315.493L1284 -315.921L1296 -316.31L1308 -316.662L1320 -316.981L1332 -317.27L1344 -317.532L1356 -317.77L1368 -317.985L1380 -318.179L1392 -318.356L1404 -318.515L1416 -318.66L1428 -318.791L1440 -318.909" stroke="#3B19CC" stroke-linecap="round"/>
<path d="M0 190.182L12 190.063L24 189.932L36 189.788L48 189.628L60 189.452L72 189.257L84 189.042L96 188.805L108 188.543L120 188.254L132 187.935L144 187.583L156 187.194L168 186.765L180 186.292L192 185.771L204 185.196L216 184.562L228 183.864L240 183.095L252 182.248L264 181.316L276 180.29L288 179.162L300 177.921L312 176.559L324 175.062L336 173.42L348 171.62L360 169.647L372 167.487L384 165.125L396 162.545L408 159.729L420 156.659L432 153.318L444 149.686L456 145.745L468 141.475L480 136.859L492 131.877L504 126.513L516 120.751L528 114.577L540 107.979L552 100.948L564 93.4798L576 85.5724L588 77.229L600 68.4577L612 59.2718L624 49.6903L636 39.738L648 29.4455L660 18.8491L672 7.99005L684 -3.08523L696 -14.3265L708 -25.6803L720 -37.0909L732 -48.5015L744 -59.8553L756 -71.0966L768 -82.1719L780 -93.0309L792 -103.627L804 -113.92L816 -123.872L828 -133.454L840 -142.639L852 -151.411L864 -159.754L876 -167.662L888 -175.13L900 -182.16L912 -188.758L924 -194.933L936 -200.695L948 -206.059L960 -211.041L972 -215.657L984 -219.927L996 -223.868L1008 -227.499L1020 -230.841L1032 -233.91L1044 -236.727L1056 -239.307L1068 -241.669L1080 -243.829L1092 -245.802L1104 -247.602L1116 -249.244L1128 -250.74L1140 -252.103L1152 -253.344L1164 -254.472L1176 -255.498L1188 -256.43L1200 -257.277L1212 -258.046L1224 -258.744L1236 -259.378L1248 -259.953L1260 -260.474L1272 -260.947L1284 -261.376L1296 -261.764L1308 -262.117L1320 -262.436L1332 -262.725L1344 -262.987L1356 -263.224L1368 -263.439L1380 -263.634L1392 -263.81L1404 -263.97L1416 -264.114L1428 -264.245L1440 -264.364" stroke="#3B19CC" stroke-linecap="round"/>
<path d="M0 244.727L12 244.609L24 244.478L36 244.333L48 244.174L60 243.998L72 243.803L84 243.588L96 243.351L108 243.089L120 242.799L132 242.48L144 242.128L156 241.74L168 241.311L180 240.838L192 240.316L204 239.742L216 239.108L228 238.41L240 237.641L252 236.794L264 235.861L276 234.835L288 233.707L300 232.467L312 231.104L324 229.608L336 227.966L348 226.165L360 224.192L372 222.033L384 219.671L396 217.09L408 214.274L420 211.204L432 207.863L444 204.231L456 200.29L468 196.021L480 191.404L492 186.423L504 181.059L516 175.296L528 169.122L540 162.524L552 155.494L564 148.025L576 140.118L588 131.775L600 123.003L612 113.817L624 104.236L636 94.2835L648 83.991L660 73.3945L672 62.5355L684 51.4602L696 40.219L708 28.8652L720 17.4546L732 6.04396L744 -5.30983L756 -16.5511L768 -27.6264L780 -38.4854L792 -49.0819L804 -59.3744L816 -69.3266L828 -78.9081L840 -88.094L852 -96.8654L864 -105.209L876 -113.116L888 -120.584L900 -127.615L912 -134.213L924 -140.387L936 -146.149L948 -151.514L960 -156.495L972 -161.112L984 -165.381L996 -169.322L1008 -172.954L1020 -176.295L1032 -179.365L1044 -182.181L1056 -184.762L1068 -187.124L1080 -189.283L1092 -191.256L1104 -193.057L1116 -194.699L1128 -196.195L1140 -197.558L1152 -198.798L1164 -199.926L1176 -200.952L1188 -201.885L1200 -202.732L1212 -203.501L1224 -204.199L1236 -204.832L1248 -205.407L1260 -205.929L1272 -206.402L1284 -206.83L1296 -207.219L1308 -207.571L1320 -207.89L1332 -208.18L1344 -208.442L1356 -208.679L1368 -208.894L1380 -209.088L1392 -209.265L1404 -209.424L1416 -209.569L1428 -209.7L1440 -209.818" stroke="#3B19CC" stroke-linecap="round"/>
<path d="M0 299.273L12 299.154L24 299.023L36 298.879L48 298.719L60 298.543L72 298.348L84 298.133L96 297.896L108 297.634L120 297.345L132 297.026L144 296.674L156 296.285L168 295.856L180 295.383L192 294.862L204 294.287L216 293.653L228 292.955L240 292.186L252 291.339L264 290.407L276 289.381L288 288.253L300 287.012L312 285.65L324 284.153L336 282.511L348 280.711L360 278.738L372 276.578L384 274.216L396 271.636L408 268.82L420 265.75L432 262.409L444 258.777L456 254.836L468 250.566L480 245.95L492 240.968L504 235.604L516 229.842L528 223.668L540 217.069L552 210.039L564 202.571L576 194.663L588 186.32L600 177.549L612 168.363L624 158.781L636 148.829L648 138.536L660 127.94L672 117.081L684 106.006L696 94.7644L708 83.4106L720 72L732 60.5894L744 49.2356L756 37.9944L768 26.9191L780 16.0601L792 5.46359L804 -4.82889L816 -14.7812L828 -24.3626L840 -33.5486L852 -42.3199L864 -50.6633L876 -58.5707L888 -66.0389L900 -73.0694L912 -79.6675L924 -85.8418L936 -91.604L948 -96.9681L960 -101.95L972 -106.566L984 -110.836L996 -114.777L1008 -118.409L1020 -121.75L1032 -124.819L1044 -127.636L1056 -130.216L1068 -132.578L1080 -134.738L1092 -136.711L1104 -138.511L1116 -140.153L1128 -141.649L1140 -143.012L1152 -144.253L1164 -145.381L1176 -146.407L1188 -147.339L1200 -148.186L1212 -148.955L1224 -149.653L1236 -150.287L1248 -150.862L1260 -151.383L1272 -151.856L1284 -152.285L1296 -152.674L1308 -153.026L1320 -153.345L1332 -153.634L1344 -153.896L1356 -154.133L1368 -154.348L1380 -154.543L1392 -154.719L1404 -154.879L1416 -155.023L1428 -155.154L1440 -155.273" stroke="#3B19CC" stroke-linecap="round"/>
<path d="M0 353.818L12 353.7L24 353.569L36 353.424L48 353.265L60 353.089L72 352.894L84 352.679L96 352.442L108 352.18L120 351.89L132 351.571L144 351.219L156 350.83L168 350.402L180 349.929L192 349.407L204 348.833L216 348.199L228 347.501L240 346.732L252 345.885L264 344.952L276 343.926L288 342.798L300 341.558L312 340.195L324 338.699L336 337.057L348 335.256L360 333.283L372 331.124L384 328.762L396 326.181L408 323.365L420 320.295L432 316.954L444 313.322L456 309.381L468 305.112L480 300.495L492 295.514L504 290.15L516 284.387L528 278.213L540 271.615L552 264.584L564 257.116L576 249.209L588 240.865L600 232.094L612 222.908L624 213.327L636 203.374L648 193.082L660 182.485L672 171.626L684 160.551L696 149.31L708 137.956L720 126.546L732 115.135L744 103.781L756 92.5398L768 81.4645L780 70.6055L792 60.0091L804 49.7166L816 39.7643L828 30.1828L840 20.9969L852 12.2256L864 3.88218L876 -4.0252L888 -11.4935L900 -18.5239L912 -25.122L924 -31.2963L936 -37.0585L948 -42.4226L960 -47.4043L972 -52.0208L984 -56.2903L996 -60.2314L1008 -63.8631L1020 -67.2044L1032 -70.274L1044 -73.0902L1056 -75.6708L1068 -78.0328L1080 -80.1924L1092 -82.1652L1104 -83.9657L1116 -85.6077L1128 -87.104L1140 -88.4668L1152 -89.7071L1164 -90.8354L1176 -91.8613L1188 -92.7936L1200 -93.6406L1212 -94.4097L1224 -95.1079L1236 -95.7415L1248 -96.3164L1260 -96.8379L1272 -97.3107L1284 -97.7394L1296 -98.128L1308 -98.4802L1320 -98.7994L1332 -99.0886L1344 -99.3506L1356 -99.5879L1368 -99.8028L1380 -99.9975L1392 -100.174L1404 -100.333L1416 -100.478L1428 -100.609L1440 -100.727" stroke="#3B19CC" stroke-linecap="round"/>
<path d="M0 408.364L12 408.245L24 408.114L36 407.97L48 407.81L60 407.634L72 407.439L84 407.224L96 406.987L108 406.725L120 406.436L132 406.117L144 405.764L156 405.376L168 404.947L180 404.474L192 403.953L204 403.378L216 402.744L228 402.046L240 401.277L252 400.43L264 399.498L276 398.472L288 397.344L300 396.103L312 394.74L324 393.244L336 391.602L348 389.802L360 387.829L372 385.669L384 383.307L396 380.727L408 377.91L420 374.841L432 371.5L444 367.868L456 363.927L468 359.657L480 355.041L492 350.059L504 344.695L516 338.933L528 332.758L540 326.16L552 319.13L564 311.662L576 303.754L588 295.411L600 286.64L612 277.454L624 267.872L636 257.92L648 247.627L660 237.031L672 226.172L684 215.097L696 203.855L708 192.502L720 181.091L732 169.68L744 158.327L756 147.085L768 136.01L780 125.151L792 114.554L804 104.262L816 94.3097L828 84.7282L840 75.5423L852 66.771L864 58.4276L876 50.5202L888 43.052L900 36.0215L912 29.4234L924 23.2491L936 17.4869L948 12.1228L960 7.1411L972 2.52459L984 -1.74486L996 -5.68595L1008 -9.31767L1020 -12.659L1032 -15.7286L1044 -18.5448L1056 -21.1254L1068 -23.4873L1080 -25.647L1092 -27.6197L1104 -29.4203L1116 -31.0623L1128 -32.5586L1140 -33.9214L1152 -35.1617L1164 -36.29L1176 -37.3159L1188 -38.2482L1200 -39.0951L1212 -39.8643L1224 -40.5625L1236 -41.1961L1248 -41.771L1260 -42.2924L1272 -42.7653L1284 -43.194L1296 -43.5826L1308 -43.9348L1320 -44.254L1332 -44.5432L1344 -44.8052L1356 -45.0425L1368 -45.2574L1380 -45.4521L1392 -45.6284L1404 -45.788L1416 -45.9325L1428 -46.0634L1440 -46.1818" stroke="#3B19CC" stroke-linecap="round"/>
<path d="M0 462.909L12 462.791L24 462.66L36 462.515L48 462.356L60 462.179L72 461.985L84 461.77L96 461.532L108 461.27L120 460.981L132 460.662L144 460.31L156 459.921L168 459.493L180 459.02L192 458.498L204 457.923L216 457.29L228 456.592L240 455.822L252 454.976L264 454.043L276 453.017L288 451.889L300 450.649L312 449.286L324 447.79L336 446.148L348 444.347L360 442.374L372 440.215L384 437.853L396 435.272L408 432.456L420 429.386L432 426.045L444 422.413L456 418.472L468 414.203L480 409.586L492 404.605L504 399.24L516 393.478L528 387.304L540 380.706L552 373.675L564 366.207L576 358.3L588 349.956L600 341.185L612 331.999L624 322.418L636 312.465L648 302.173L660 291.576L672 280.717L684 269.642L696 258.401L708 247.047L720 235.636L732 224.226L744 212.872L756 201.631L768 190.555L780 179.696L792 169.1L804 158.807L816 148.855L828 139.274L840 130.088L852 121.316L864 112.973L876 105.066L888 97.5974L900 90.5669L912 83.9689L924 77.7946L936 72.0323L948 66.6683L960 61.6866L972 57.0701L984 52.8006L996 48.8595L1008 45.2278L1020 41.8865L1032 38.8169L1044 36.0007L1056 33.4201L1068 31.0581L1080 28.8985L1092 26.9257L1104 25.1252L1116 23.4832L1128 21.9869L1140 20.6241L1152 19.3838L1164 18.2555L1176 17.2296L1188 16.2973L1200 15.4503L1212 14.6812L1224 13.983L1236 13.3493L1248 12.7745L1260 12.253L1272 11.7802L1284 11.3515L1296 10.9628L1308 10.6106L1320 10.2915L1332 10.0023L1344 9.74031L1356 9.503L1368 9.28806L1380 9.0934L1392 8.91712L1404 8.7575L1416 8.61297L1428 8.48211L1440 8.36365" stroke="#3B19CC" stroke-linecap="round"/>
<path d="M0 517.455L12 517.336L24 517.205L36 517.061L48 516.901L60 516.725L72 516.53L84 516.315L96 516.078L108 515.816L120 515.527L132 515.208L144 514.855L156 514.467L168 514.038L180 513.565L192 513.044L204 512.469L216 511.835L228 511.137L240 510.368L252 509.521L264 508.589L276 507.563L288 506.434L300 505.194L312 503.831L324 502.335L336 500.693L348 498.892L360 496.92L372 494.76L384 492.398L396 489.818L408 487.001L420 483.932L432 480.59L444 476.959L456 473.018L468 468.748L480 464.132L492 459.15L504 453.786L516 448.024L528 441.849L540 435.251L552 428.221L564 420.753L576 412.845L588 404.502L600 395.73L612 386.544L624 376.963L636 367.011L648 356.718L660 346.122L672 335.263L684 324.187L696 312.946L708 301.592L720 290.182L732 278.771L744 267.417L756 256.176L768 245.101L780 234.242L792 223.645L804 213.353L816 203.401L828 193.819L840 184.633L852 175.862L864 167.518L876 159.611L888 152.143L900 145.112L912 138.514L924 132.34L936 126.578L948 121.214L960 116.232L972 111.615L984 107.346L996 103.405L1008 99.7732L1020 96.4319L1032 93.3623L1044 90.5461L1056 87.9655L1068 85.6035L1080 83.4439L1092 81.4711L1104 79.6706L1116 78.0286L1128 76.5323L1140 75.1695L1152 73.9292L1164 72.8009L1176 71.775L1188 70.8427L1200 69.9957L1212 69.2266L1224 68.5284L1236 67.8948L1248 67.3199L1260 66.7984L1272 66.3256L1284 65.8969L1296 65.5083L1308 65.156L1320 64.8369L1332 64.5477L1344 64.2857L1356 64.0484L1368 63.8335L1380 63.6388L1392 63.4625L1404 63.3029L1416 63.1584L1428 63.0275L1440 62.9091" stroke="#3B19CC" stroke-linecap="round"/>
<path d="M0 572L12 571.882L24 571.751L36 571.606L48 571.447L60 571.27L72 571.076L84 570.861L96 570.623L108 570.361L120 570.072L132 569.753L144 569.401L156 569.012L168 568.583L180 568.111L192 567.589L204 567.014L216 566.381L228 565.682L240 564.913L252 564.066L264 563.134L276 562.108L288 560.98L300 559.74L312 558.377L324 556.88L336 555.238L348 553.438L360 551.465L372 549.306L384 546.944L396 544.363L408 541.547L420 538.477L432 535.136L444 531.504L456 527.563L468 523.294L480 518.677L492 513.695L504 508.331L516 502.569L528 496.395L540 489.797L552 482.766L564 475.298L576 467.391L588 459.047L600 450.276L612 441.09L624 431.508L636 421.556L648 411.264L660 400.667L672 389.808L684 378.733L696 367.492L708 356.138L720 344.727L732 333.317L744 321.963L756 310.722L768 299.646L780 288.787L792 278.191L804 267.898L816 257.946L828 248.365L840 239.179L852 230.407L864 222.064L876 214.157L888 206.688L900 199.658L912 193.06L924 186.885L936 181.123L948 175.759L960 170.777L972 166.161L984 161.891L996 157.95L1008 154.319L1020 150.977L1032 147.908L1044 145.092L1056 142.511L1068 140.149L1080 137.989L1092 136.017L1104 134.216L1116 132.574L1128 131.078L1140 129.715L1152 128.475L1164 127.346L1176 126.32L1188 125.388L1200 124.541L1212 123.772L1224 123.074L1236 122.44L1248 121.865L1260 121.344L1272 120.871L1284 120.442L1296 120.054L1308 119.702L1320 119.382L1332 119.093L1344 118.831L1356 118.594L1368 118.379L1380 118.184L1392 118.008L1404 117.848L1416 117.704L1428 117.573L1440 117.455" stroke="#3B19CC" stroke-linecap="round"/>
<path d="M0 626.546L12 626.427L24 626.296L36 626.152L48 625.992L60 625.816L72 625.621L84 625.406L96 625.169L108 624.907L120 624.618L132 624.299L144 623.946L156 623.558L168 623.129L180 622.656L192 622.135L204 621.56L216 620.926L228 620.228L240 619.459L252 618.612L264 617.68L276 616.654L288 615.525L300 614.285L312 612.922L324 611.426L336 609.784L348 607.983L360 606.011L372 603.851L384 601.489L396 598.909L408 596.092L420 593.023L432 589.681L444 586.05L456 582.109L468 577.839L480 573.223L492 568.241L504 562.877L516 557.115L528 550.94L540 544.342L552 537.312L564 529.844L576 521.936L588 513.593L600 504.821L612 495.635L624 486.054L636 476.102L648 465.809L660 455.213L672 444.354L684 433.278L696 422.037L708 410.683L720 399.273L732 387.862L744 376.508L756 365.267L768 354.192L780 343.333L792 332.736L804 322.444L816 312.492L828 302.91L840 293.724L852 284.953L864 276.609L876 268.702L888 261.234L900 254.203L912 247.605L924 241.431L936 235.669L948 230.305L960 225.323L972 220.706L984 216.437L996 212.496L1008 208.864L1020 205.523L1032 202.453L1044 199.637L1056 197.056L1068 194.695L1080 192.535L1092 190.562L1104 188.762L1116 187.12L1128 185.623L1140 184.261L1152 183.02L1164 181.892L1176 180.866L1188 179.934L1200 179.087L1212 178.318L1224 177.619L1236 176.986L1248 176.411L1260 175.889L1272 175.417L1284 174.988L1296 174.599L1308 174.247L1320 173.928L1332 173.639L1344 173.377L1356 173.139L1368 172.924L1380 172.73L1392 172.554L1404 172.394L1416 172.249L1428 172.119L1440 172" stroke="#3B19CC" stroke-linecap="round"/>
<path d="M0 681.091L12 680.973L24 680.842L36 680.697L48 680.538L60 680.361L72 680.167L84 679.952L96 679.714L108 679.452L120 679.163L132 678.844L144 678.492L156 678.103L168 677.674L180 677.202L192 676.68L204 676.105L216 675.472L228 674.773L240 674.004L252 673.157L264 672.225L276 671.199L288 670.071L300 668.831L312 667.468L324 665.971L336 664.329L348 662.529L360 660.556L372 658.397L384 656.035L396 653.454L408 650.638L420 647.568L432 644.227L444 640.595L456 636.654L468 632.385L480 627.768L492 622.786L504 617.422L516 611.66L528 605.486L540 598.888L552 591.857L564 584.389L576 576.482L588 568.138L600 559.367L612 550.181L624 540.599L636 530.647L648 520.355L660 509.758L672 498.899L684 487.824L696 476.583L708 465.229L720 453.818L732 442.408L744 431.054L756 419.813L768 408.737L780 397.878L792 387.282L804 376.989L816 367.037L828 357.456L840 348.27L852 339.498L864 331.155L876 323.248L888 315.779L900 308.749L912 302.151L924 295.976L936 290.214L948 284.85L960 279.868L972 275.252L984 270.982L996 267.041L1008 263.41L1020 260.068L1032 256.999L1044 254.183L1056 251.602L1068 249.24L1080 247.08L1092 245.108L1104 243.307L1116 241.665L1128 240.169L1140 238.806L1152 237.566L1164 236.437L1176 235.411L1188 234.479L1200 233.632L1212 232.863L1224 232.165L1236 231.531L1248 230.956L1260 230.435L1272 229.962L1284 229.533L1296 229.145L1308 228.793L1320 228.473L1332 228.184L1344 227.922L1356 227.685L1368 227.47L1380 227.275L1392 227.099L1404 226.939L1416 226.795L1428 226.664L1440 226.546" stroke="#3B19CC" stroke-linecap="round"/>
<path d="M0 735.636L12 735.518L24 735.387L36 735.242L48 735.083L60 734.907L72 734.712L84 734.497L96 734.26L108 733.998L120 733.708L132 733.389L144 733.037L156 732.649L168 732.22L180 731.747L192 731.225L204 730.651L216 730.017L228 729.319L240 728.55L252 727.703L264 726.77L276 725.744L288 724.616L300 723.376L312 722.013L324 720.517L336 718.875L348 717.074L360 715.101L372 712.942L384 710.58L396 707.999L408 705.183L420 702.113L432 698.772L444 695.14L456 691.199L468 686.93L480 682.313L492 677.332L504 671.968L516 666.205L528 660.031L540 653.433L552 646.403L564 638.934L576 631.027L588 622.684L600 613.912L612 604.726L624 595.145L636 585.192L648 574.9L660 564.304L672 553.445L684 542.369L696 531.128L708 519.774L720 508.364L732 496.953L744 485.599L756 474.358L768 463.283L780 452.424L792 441.827L804 431.535L816 421.582L828 412.001L840 402.815L852 394.044L864 385.7L876 377.793L888 370.325L900 363.294L912 356.696L924 350.522L936 344.76L948 339.395L960 334.414L972 329.797L984 325.528L996 321.587L1008 317.955L1020 314.614L1032 311.544L1044 308.728L1056 306.147L1068 303.785L1080 301.626L1092 299.653L1104 297.852L1116 296.21L1128 294.714L1140 293.351L1152 292.111L1164 290.983L1176 289.957L1188 289.024L1200 288.177L1212 287.408L1224 286.71L1236 286.077L1248 285.502L1260 284.98L1272 284.507L1284 284.079L1296 283.69L1308 283.338L1320 283.019L1332 282.729L1344 282.467L1356 282.23L1368 282.015L1380 281.821L1392 281.644L1404 281.485L1416 281.34L1428 281.209L1440 281.091" stroke="#3B19CC" stroke-linecap="round"/>
</svg>
